<svg xmlns="http://www.w3.org/2000/svg" viewBox="0 0 512 512">
    <defs>
        <style>
            .cls-1{fill:#f8f9fa;}.cls-2{fill:#ccd6dd;}.cls-3{fill:#e1e8ed;}.cls-4{fill:#55acee;}.cls-5{fill:#88c9f9;}.cls-6{fill:#5c913b;}.cls-7{fill:#77b255;}</style>
    </defs>
    <rect class="cls-1" width="512" height="512" />
    <path class="cls-2"
        d="M201.49,152.49l-81.77-21.9c-15-4-27.25,4.9-27.25,20v181.7c0,15.05,12.2,30.52,27.25,34.56l81.77,21.9Zm109,207,81.77,21.9c15,4,27.25-4.91,27.25-20V179.76c0-15.06-12.21-30.53-27.25-34.56l-81.77-21.91Z" />
    <path class="cls-3" d="M310.51,359.5l-109,29.21V152.49l109-29.2Z" />
    <path class="cls-4"
        d="M201.49,170.66l-72.68-19.47c-10-2.69-18.17,3.27-18.17,13.3V328c0,10,8.14,20.35,18.17,23l72.68,19.49Zm181.7-9.73-72.68-19.48V341.32l72.68,19.48c10,2.69,18.17-3.27,18.17-13.31V184C401.36,173.93,393.22,163.61,383.19,160.93Z" />
    <path class="cls-5" d="M310.51,341.33l-109,29.21V170.66l109-29.2Z" />
    <path class="cls-6"
        d="M201.49,278.77c-2.44.05-5.41.94-7.68,1.31-4,.67-3,4.7-4.2,4a25.75,25.75,0,0,1-7.38-6c-3.06-3.58,2.27-4.33,3.8-5.65s-2.87-1.56-4.41-3-4.28,1-6.71-2.5-.92-7.18-1.21-10.72,4-3.1,6.71-3,4.89,1.31,4.89,5.47,3.36,6.43,2.44,1.33.92-6,2.14-8.09,3.36-5,6.1-9.45c2-3.25,3.54-2.57,5.51-1.49V210.58a7,7,0,0,0-1.5-1c-2.75-1.2.87,6.84-1.26,10.07s-5.43,1.76-8.81.86-6.48-5-4-9.15,7.11-2.44,9.55-5.93-8.7-6.11-12.67-8.55-8.74-3.72-12.71-1.33-12.48,1.21-15.84,1.69-4-3.35-4.57-6.3-5.93-3-11.42-3.07-15.82,2.56-14,16c.61,4.67,5.49,1.13,6.42.33s5.5,1.82,6.1,5.79a22.61,22.61,0,0,1-.9,11.19c-1.25,3.14,3,9.14,5.48,14.65s5.21,6.23,6.43,6.56,8.25,5.34,7.95,9.05,6.41,9,9.16,12.18,4.49,6,8.06,7.68,7.74,9.41,9.58,10.59c1.4.91,3.79,4.09,5.23,5.27-1.89,2.19-5.56,6.79-5.56,9.34,0,3.48,4,10,5.52,11.82s5.91,4,6.83,7.72-.64,14.95-3.38,17.32-3.76,9.48-3.76,9.48,1,2.66,4.22,1.13c2.81-1.31,7.05-5.15,9.94-7.28V278.77Z" />
    <path class="cls-7"
        d="M203.92,241.58a12.86,12.86,0,0,1-2.43.1V211.29c2.31.59,4.65,2.88,6.42,6.69,2.13,4.62,5.49.6,6.72,3.4s8,6.88,4.58,6.74-6.73.07-7.64,4.12,1.53,7.22-.92,7.53S207.29,241.06,203.92,241.58Zm23.53,50.5c-4-.68-3.26-.21-5.7-5.45s-3.92-6.75-9.41-5.95-5.3,1.23-6.83-1.49c-.65-1.16-2.19-.74-4,.29v57.87a27.12,27.12,0,0,1,2.07-2.43A121.19,121.19,0,0,0,216.88,320c4.27-5.64,2.73-8.4,4.86-13.46s4.92-5.6,8.58-10.4S231.42,292.77,227.45,292.08Zm83.06-65.78V168.94c-.36,0-.62.11-1,.13-1.9.1-4.38,1.23-7.08,2.91-.21,0-.41-.14-.63-.19-8.14-1.59-11.92,11-18.53,10.47s-15.44-3.13-21.18,4.67-7.06,13.9,0,11.75,11.92-12.94,15.44-9.89,2.64,6.55-5.74,10-17.43,7.42-22.28,8.72-5.95,4.85-2.65,7.47-2,4.28-7.5,9.26,1.32,4.66,6,6.41,8.15-2.94,10.14-8.47,10.52-13.82,14.09-14,3.56,1.79,2.88,5.47a2.33,2.33,0,0,0,.1,1.26c-1.54,4.9-2.81,9.36-3.31,11.86a30.49,30.49,0,0,0-.25,5.41,8.08,8.08,0,0,1-2.25,0c-4-1.17-13-2-15.45.39s-3.75,4.56-6.62,6.57-14.56,11.12-14.78,18.93-.44,16.63,4.19,15.63,15.89-7.5,19.41-11.7,8.37-4.74,9.93-1.41.43,5.89-1.09,12.3,1,8.75,3.46,13.33,4.46,7,4.46,10.81,3.53,6.56,8.81-1.12a65,65,0,0,0,4.87-8.7c3.72-4.26,7-8.38,6.89-10-.15-2.56-.2-3.95-.22-5.67l.82-2a108,108,0,0,0,3.29-10.49,2.38,2.38,0,0,1,.18-.22c2.16-3.06,1.69-3.21,5.27-6.87,2.4-2.45,2.31-4.65,1.95-6.16,1-1.59,1.22-2.54-.3-2.13l-.15,0s0,.17-.05.13c-.21-1.35-1.87,0-4.55,1.34-2.58.08-5.15-.6-6.07-3.34-1.21-3.6-5.47-9.05-5.81-12.14,0-.37,0-.7.09-1.12a1.5,1.5,0,0,1,.63-.8,2.57,2.57,0,0,1,1-.32,15.66,15.66,0,0,1,.78,4.21c.24,4.34,3.58,1.78,3.58,4.53s4.81,4.47,6,5c.34.14.86-.25,1.45-.89a3.76,3.76,0,0,0,.84.33c2.66.28,8.38-8.94,10.15-10.57a3,3,0,0,0,.3-3.58Z" />
    <path class="cls-6"
        d="M343.53,267.09c-.49,4,1.67,1.83,5.5,6.41s-.94,3.58-2.62,2.87-3.37-1.19-5.26-4.71,0-6.31,0-9.33C341.15,262.33,344,263.1,343.53,267.09Zm3.28-8.18c3.54,1.51,1-4.38,2.22-7.64s2.87-3.35,5-3.3,3.84-1.74,5.28-3.54,4.07-4.12,3.84-6.65-.95-4.38-1.93-7.66,2.87-3.35,4.56-6.46,0,0,3.82-.08,2.17-.52,2.88-2,1.2-3,.49-6.17-3.37-.91-6-1.61,1-3.86,1.2-7.09,3.61-1.5,6-1.13S377.32,210,378,211s8.13-3.32,10.07-5.82-1.69-2.65-.72-3.66-5.74-3.07-8.41-4.27-9.34-3.33-12-5.89-12.68-3.87-15.34-3.06-4.32-1.3-5.5-3.69-6.23-2.7-7.67-4.24-2.87,1.15-4.8,1.45-2.63.39-5-1.9.73-3.37-2.61-5.64-7.39-1.66-15.54-5.37v57.36a25.39,25.39,0,0,1,3.31.47c1.19.31,4.07,5.2,4.07,7.12s1.43,7.52,2.64,10.85,3.82,4.6,6.23,7.44,3.58,1.24,3.58,1.24a56.39,56.39,0,0,1-.95-8.77,9.18,9.18,0,0,1,2.87-6.36s4.54,5.06,4.8,6.22,3.82,6,4.08,8S343.29,257.42,346.81,258.91Zm19-18.79c1.67.73,8.87,1.55,5-3s-1-2.71-.48-6.7-2.4-4.76-2.4-4.76c0,3-1.91,5.8,0,9.32S364.13,239.39,365.82,240.12ZM384,288.92c-1.19-2-3.83-3.5-6.71-4.19s-2.63-4.36-5.5-4.85-4.95-3.53-6.24-4.65c-2.83-2.41-1,1.9,0,6.35s4.56,2.24,7.9,5.33,3.61.14,6.72,2.08,4.32,4.72,7.31,5.25S385.23,290.89,384,288.92Zm-28.06-13c2.38,3.65,1.45.39,4.58-.15s-2.64-5.1-4.56-7.26-3.82-2.73-5.5.45C348.59,272.57,353.6,272.25,356,275.91Zm21.83,23.43c-1.21-3.08-4.7-6.48-6.13-8.27a6.48,6.48,0,0,0-5.61-2.54c-1.93.29-3.12-.83-4.07-3.28s-2.64-2.11-4.08-2.21-7.19,1.08-10.55,2.09a17.35,17.35,0,0,0-7.07,4.15c-3.47,2.91-1.54,1,0,3.85s-1.7,9.69-1.93,14,6.14.28,8.53.35,1.69-1.71,3.59-2.85,3.18-1.17,5.26,1.56,4.88,5.55,4.88,8,7.58,8.6,10.46,7.74,4.55-3.71,7.19-5.77,1.69-7.49,2.4-10.61S379,302.38,377.8,299.34Z" />
</svg>