<svg xmlns="http://www.w3.org/2000/svg" fill="currentColor" viewBox="0 0 16 16">
    <path d="M14.67,2.58l-4-1.07h0L5.33,2.94l-4-1.08A1,1,0,0,0,0,2.84v8.89a1.87,1.87,0,0,0,1.33,1.69l4,1.07h0l5.34-1.43h0l4,1.08a1,1,0,0,0,1.33-1V4.27A1.87,1.87,0,0,0,14.67,2.58Zm.44,9.9a.66.66,0,0,1-.89.65l-3.55-1h0L5.33,13.6l-3.55-.95a1.25,1.25,0,0,1-.89-1.13v-8a.66.66,0,0,1,.89-.65l3.55,1L10.67,2.4h0l3.55,1a1.25,1.25,0,0,1,.89,1.13Z" />
    <polygon points="5.33 9.11 5.33 9.15 5.33 9.15 5.33 9.11 5.33 9.11" />
    <polygon points="5.33 9.11 5.33 9.15 5.33 9.15 5.33 9.11 5.33 9.11" />
    <polygon points="5.33 9.11 5.33 9.15 5.33 9.15 5.33 9.11 5.33 9.11" />
    <path d="M14.46,5.51c-.09.13-.45.34-.49.29s-.07-.25-.19-.27-.28-.1-.29.06-.19.31-.06.35.26-.08.29.08a.36.36,0,0,1,0,.3c0,.07.05.09-.14.09s-.11-.14-.19,0-.27.15-.22.31a1.59,1.59,0,0,1,.09.38c0,.12-.11.24-.18.32a.38.38,0,0,1-.26.18c-.11,0-.19,0-.25.16s.07.45-.11.37a.44.44,0,0,1-.27-.31c0-.1-.19-.34-.2-.39a2.42,2.42,0,0,0-.24-.31.47.47,0,0,0-.14.31,2.55,2.55,0,0,0,.05.43s-.06.08-.18-.06-.24-.2-.3-.36A2.36,2.36,0,0,1,11,6.92a.6.6,0,0,0-.2-.35l-.16,0h0a.15.15,0,0,1,0,.17c-.09.08-.37.53-.5.52l0,0s-.05,0-.07,0-.3-.11-.3-.25-.16,0-.17-.22a.88.88,0,0,0,0-.2h0l0,0v.06c0,.15.22.41.28.59a.27.27,0,0,0,.3.16c.13-.06.21-.13.22-.06h0c.07,0,.06,0,0,.1a.3.3,0,0,1-.09.31,1.37,1.37,0,0,0-.26.33h0a4.06,4.06,0,0,1-.16.52l0,.09c0,.09,0,.16,0,.28s-.15.28-.33.49-.16.3-.24.42c-.26.38-.43.24-.43.06a1.11,1.11,0,0,0-.22-.53c-.12-.22-.25-.34-.17-.65s.13-.44,0-.6-.31-.14-.48.06a2.65,2.65,0,0,1-1,.58c-.23.05-.22-.39-.21-.77s.58-.83.72-.92a2.06,2.06,0,0,0,.33-.33c.12-.11.56-.07.75,0h.11a1.76,1.76,0,0,1,0-.27A4.53,4.53,0,0,1,8.81,6a.11.11,0,0,1,0-.06c0-.18,0-.28-.14-.27s-.59.42-.69.69-.27.5-.49.41-.56-.07-.29-.31.52-.33.36-.45-.1-.31.13-.37A11.28,11.28,0,0,0,8.77,5.2c.41-.17.46-.34.28-.49s-.41.38-.75.49S8,5,8.3,4.62s.71-.25,1-.23.51-.59.91-.51h0a.75.75,0,0,1,.35-.14h.05c.4.18.6.16.76.26s0,.17.12.28.16.11.25.09S12,4.23,12,4.3s.31.09.37.21.14.22.27.18a1.2,1.2,0,0,1,.75.15,2.68,2.68,0,0,0,.59.29c.13.06.45.16.41.21S14.56,5.39,14.46,5.51Z" />
    <path d="M6.74,10c-.18.24-.31.26-.42.51s0,.38-.23.66a5.87,5.87,0,0,1-.66.73l-.1.12v0a4.45,4.45,0,0,1-.48.35c-.16.08-.21-.05-.21-.05a1,1,0,0,1,.18-.47A1.26,1.26,0,0,0,5,10.94c0-.19-.26-.3-.33-.38A1.3,1.3,0,0,1,4.39,10c0-.13.18-.35.27-.46-.07,0-.19-.21-.26-.26s-.29-.43-.47-.51a1.28,1.28,0,0,1-.39-.38c-.14-.15-.46-.41-.45-.6s-.33-.42-.39-.44-.19,0-.31-.32-.33-.56-.27-.72a1.07,1.07,0,0,0,0-.54c0-.2-.25-.33-.29-.29s-.29.22-.32,0a.63.63,0,0,1,.69-.78c.27,0,.53,0,.56.15s.06.33.22.3.58,0,.78-.08a.61.61,0,0,1,.62.07c.19.12.74.24.62.41s-.35.09-.47.29a.3.3,0,0,0,.2.45c.16,0,.32.12.43,0s-.07-.55.06-.49l.07,0v0a.54.54,0,0,1,.32.33c.1.23.27,0,.33.17s.38.33.22.33-.33,0-.37.2.07.35,0,.37-.16.06-.33.08H5.33v0c-.09,0-.17-.08-.27.08s-.24.36-.29.46a.43.43,0,0,0-.11.4c0,.25-.12.13-.12-.07s-.1-.27-.24-.27S4,7.84,4,8s-.06.36.06.53.26.05.33.12.29.08.22.15-.34.1-.19.27a1.11,1.11,0,0,0,.36.29c.06,0,0-.16.21-.19s.25-.06.37-.07v0h0c.09-.05.17-.07.2,0s.07.12.33.08.35,0,.46.29.09.23.28.26S6.92,9.73,6.74,10Z" />
    <path d="M14.1,10.43c0,.15,0,.42-.12.52s-.21.23-.35.28-.51-.26-.51-.38-.14-.26-.24-.39-.16-.14-.26-.08-.06.14-.17.14-.43.19-.42,0,.17-.54.09-.68-.17-.05,0-.19a.93.93,0,0,1,.35-.21,4.12,4.12,0,0,1,.52-.1c.07,0,.15,0,.19.11s.11.18.2.16a.33.33,0,0,1,.28.13,1.67,1.67,0,0,1,.3.4C14,10.27,14.13,10.27,14.1,10.43Z" />
    <path d="M14.43,9.87c-.14,0-.2-.16-.35-.26s-.17.05-.33-.1-.34,0-.39-.26-.14-.43,0-.31a.7.7,0,0,0,.31.23c.14,0,.13.2.26.24a.48.48,0,0,1,.33.2C14.32,9.71,14.58,9.9,14.43,9.87Z" />
    <path d="M13.11,9c-.15,0-.1.18-.22,0s-.36-.16-.27-.34.18-.12.27,0S13.27,8.94,13.11,9Z" />
    <path d="M12.42,9a.43.43,0,0,1-.25-.23c-.1-.18,0-.31,0-.46,0,0,.14,0,.11.23s.08.09.27.32S12.5,9,12.42,9Z" />
    <path d="M13.37,7.22c-.08,0,.2-.08.11-.25s0-.31,0-.46c0,0,.14,0,.12.24s-.17.1,0,.32S13.45,7.26,13.37,7.22Z" />
</svg>