<svg xmlns="http://www.w3.org/2000/svg" viewBox="0 0 512 512">
    <defs>
        <style>
            .cls-1{fill:#ccd6dd;}.cls-2{fill:#e1e8ed;}.cls-3{fill:#55acee;}.cls-4{fill:#88c9f9;}.cls-5{fill:#5c913b;}.cls-6{fill:#77b255;}</style>
    </defs>
    <path class="cls-1"
        d="M188.82,128.43,88,101.43c-18.55-5-33.59,6-33.59,24.6V350c0,18.54,15,37.61,33.59,42.59l100.78,27ZM323.18,383.57l100.78,27c18.54,5,33.59-6.05,33.59-24.59V162c0-18.55-15.05-37.62-33.59-42.59l-100.78-27Z" />
    <path class="cls-2" d="M323.18,383.56l-134.36,36V128.43l134.36-36Z" />
    <path class="cls-3"
        d="M188.82,150.82l-89.58-24c-12.37-3.32-22.4,4-22.4,16.39V344.76c0,12.36,10,25.08,22.4,28.39l89.58,24Zm223.94-12-89.58-24V361.15l89.58,24c12.37,3.32,22.4-4,22.4-16.4V167.2C435.16,154.85,425.13,142.13,412.76,138.82Z" />
    <path class="cls-4" d="M323.18,361.17l-134.36,36V150.82l134.36-36Z" />
    <path class="cls-5"
        d="M188.82,284.06c-3,.07-6.67,1.17-9.47,1.62-4.88.82-3.68,5.79-5.18,5a31.6,31.6,0,0,1-9.09-7.36c-3.78-4.41,2.8-5.34,4.68-7s-3.54-1.92-5.43-3.72-5.28,1.17-8.28-3.09-1.13-8.84-1.49-13.21,4.88-3.82,8.28-3.74,6,1.61,6,6.74,4.14,7.93,3,1.64,1.13-7.36,2.64-10,4.14-6.16,7.52-11.64c2.47-4,4.36-3.17,6.79-1.84V200a9.07,9.07,0,0,0-1.85-1.26c-3.39-1.48,1.07,8.43-1.56,12.42s-6.69,2.16-10.86,1-8-6.1-5-11.28,8.76-3,11.77-7.31-10.72-7.52-15.61-10.53-10.78-4.58-15.68-1.64-15.37,1.49-19.51,2.08-4.89-4.13-5.64-7.76-7.31-3.68-14.07-3.78-19.5,3.14-17.32,19.69c.76,5.76,6.77,1.39,7.91.41s6.78,2.24,7.52,7.13a27.72,27.72,0,0,1-1.11,13.8c-1.54,3.86,3.76,11.26,6.76,18.05s6.42,7.68,7.92,8.09,10.16,6.57,9.79,11.15,7.91,11.1,11.3,15,5.53,7.41,9.94,9.47,9.54,11.59,11.8,13.05c1.73,1.12,4.68,5.05,6.45,6.49-2.33,2.71-6.86,8.38-6.86,11.52,0,4.29,4.93,12.35,6.81,14.56s7.28,4.95,8.41,9.52-.78,18.43-4.16,21.35S171.37,363,171.37,363s1.2,3.28,5.21,1.39c3.46-1.61,8.69-6.34,12.25-9V284.06Z" />
    <path class="cls-6"
        d="M191.82,238.23a16.58,16.58,0,0,1-3,.12V200.9c2.84.73,5.73,3.55,7.91,8.24,2.62,5.7,6.77.74,8.28,4.19s9.79,8.48,5.65,8.31-8.3.08-9.42,5.08,1.89,8.89-1.14,9.27S196,237.58,191.82,238.23Zm29,62.23c-4.88-.82-4-.25-7-6.7s-4.83-8.32-11.6-7.35-6.53,1.52-8.41-1.82c-.81-1.44-2.7-.92-5,.34v71.33a32.51,32.51,0,0,1,2.55-3,149.91,149.91,0,0,0,16.41-18.43c5.27-6.95,3.36-10.35,6-16.58s6.06-6.91,10.57-12.82S225.71,301.32,220.82,300.46ZM323.18,219.4V148.7c-.44,0-.76.13-1.23.16-2.34.13-5.39,1.52-8.72,3.59-.27-.06-.52-.18-.78-.24-10-2-14.69,13.49-22.84,12.9s-19-3.85-26.11,5.76-8.7,17.13,0,14.49,14.69-16,19-12.2,3.25,8.08-7.08,12.37S254,194.68,248,196.28s-7.34,6-3.27,9.21-2.46,5.27-9.25,11.42,1.63,5.73,7.34,7.89,10.06-3.61,12.51-10.43,13-17,17.36-17.29,4.38,2.21,3.56,6.74a2.74,2.74,0,0,0,.12,1.55c-1.9,6-3.47,11.53-4.09,14.62a37.89,37.89,0,0,0-.3,6.66,9.24,9.24,0,0,1-2.78,0c-4.9-1.44-16-2.46-19,.48s-4.62,5.63-8.16,8.1S224.07,249,223.8,258.58s-.55,20.49,5.16,19.27,19.58-9.25,23.93-14.43,10.31-5.84,12.22-1.74.54,7.26-1.34,15.16S265,287.62,268,293.28s5.5,8.67,5.5,13.31,4.35,8.1,10.86-1.38a80,80,0,0,0,6-10.71c4.58-5.25,8.6-10.34,8.49-12.28-.18-3.14-.24-4.86-.27-7l1-2.47c1.42-3.28,2.69-8.35,4.05-12.93.08-.11.15-.19.22-.27,2.66-3.77,2.08-3.95,6.5-8.46,2.95-3,2.84-5.74,2.39-7.6,1.18-1.95,1.5-3.13-.37-2.63l-.17.05s-.06.21-.07.16c-.26-1.67-2.31,0-5.61,1.65-3.18.09-6.34-.74-7.48-4.12-1.49-4.43-6.74-11.15-7.16-15,0-.46.06-.86.12-1.39a1.81,1.81,0,0,1,.77-1,3.07,3.07,0,0,1,1.25-.39,19.35,19.35,0,0,1,1,5.19c.29,5.34,4.41,2.2,4.41,5.58s5.93,5.51,7.4,6.13c.41.18,1.05-.3,1.78-1.09a5.11,5.11,0,0,0,1,.41c3.27.35,10.32-11,12.51-13a3.71,3.71,0,0,0,.37-4.41Z" />
    <path class="cls-5"
        d="M363.88,269.67c-.6,4.93,2.06,2.25,6.78,7.9s-1.16,4.41-3.23,3.53-4.15-1.46-6.49-5.8,0-7.78,0-11.5C360.94,263.8,364.48,264.75,363.88,269.67Zm4.05-10.09c4.35,1.86,1.28-5.39,2.73-9.41s3.54-4.12,6.22-4.07,4.72-2.14,6.5-4.35,5-5.09,4.73-8.21-1.17-5.4-2.38-9.44,3.54-4.12,5.62-8,0,0,4.72-.09,2.66-.65,3.54-2.44,1.49-3.66.6-7.62-4.14-1.12-7.39-2,1.19-4.76,1.48-8.73,4.44-1.85,7.4-1.4,3.83,5.42,4.71,6.68,10-4.09,12.41-7.18-2.08-3.25-.88-4.51-7.08-3.77-10.36-5.25-11.51-4.11-14.76-7.27-15.63-4.77-18.9-3.77-5.33-1.6-6.79-4.55-7.68-3.32-9.45-5.23-3.53,1.43-5.92,1.8-3.24.48-6.2-2.34.89-4.16-3.23-7c-4-2.66-9.1-2-19.15-6.62v70.7a31.87,31.87,0,0,1,4.08.58c1.47.39,5,6.41,5,8.77s1.77,9.28,3.26,13.39,4.7,5.66,7.68,9.15,4.41,1.54,4.41,1.54A69,69,0,0,1,346.45,242a11.37,11.37,0,0,1,3.54-7.85s5.6,6.25,5.91,7.67,4.72,7.35,5,9.81S363.58,257.75,367.93,259.58Zm23.42-23.15c2.06.89,10.93,1.91,6.21-3.74s-1.19-3.35-.6-8.27-2.95-5.86-2.95-5.86c0,3.71-2.36,7.14,0,11.48S389.27,235.53,391.35,236.43Zm22.44,60.14c-1.46-2.43-4.71-4.31-8.26-5.16s-3.25-5.38-6.79-6-6.09-4.36-7.68-5.74c-3.49-3-1.18,2.35,0,7.83s5.61,2.76,9.73,6.56,4.45.18,8.29,2.57,5.32,5.82,9,6.47S415.28,299,413.79,296.57Zm-34.57-16c2.93,4.5,1.78.48,5.64-.18s-3.26-6.28-5.62-8.94-4.7-3.37-6.78.55C370.11,276.42,376.29,276,379.22,280.53Zm26.9,28.88c-1.49-3.78-5.8-8-7.55-10.19s-4.56-3.49-6.92-3.12-3.85-1-5-4-3.25-2.61-5-2.74-8.86,1.34-13,2.58-6,2.82-8.71,5.12c-4.28,3.58-1.9,1.17,0,4.74S357.8,313.7,357.5,319s7.57.35,10.52.44,2.08-2.12,4.43-3.52,3.91-1.44,6.49,1.93,6,6.84,6,9.89,9.34,10.6,12.89,9.54,5.61-4.57,8.85-7.11,2.09-9.23,3-13.08S407.58,313.16,406.12,309.41Z" />
</svg>